<svg width="1280" height="800" viewBox="0 0 1280 800" fill="none" xmlns="http://www.w3.org/2000/svg">
  <rect width="1280" height="800" rx="36" fill="#12090b"/>
  <rect x="54" y="56" width="1172" height="688" rx="30" fill="#1c1115" stroke="#4b1d26" stroke-width="2"/>
  <rect x="96" y="100" width="1088" height="86" rx="24" fill="#24151a"/>
  <rect x="96" y="224" width="682" height="476" rx="24" fill="#160d11"/>
  <rect x="816" y="224" width="368" height="476" rx="24" fill="#160d11"/>
  <rect x="132" y="132" width="238" height="20" rx="10" fill="#fecdd3"/>
  <rect x="132" y="162" width="476" height="10" rx="5" fill="#fb7185" fill-opacity=".65"/>
  <circle cx="1132" cy="142" r="32" fill="#fb7185"/>
  <path d="M1118 143L1128 153L1148 129" stroke="#1c1115" stroke-width="8" stroke-linecap="round" stroke-linejoin="round"/>
  <rect x="132" y="266" width="590" height="36" rx="10" fill="#2a171d"/>
  <rect x="152" y="278" width="86" height="12" rx="6" fill="#fda4af"/>
  <rect x="268" y="278" width="210" height="12" rx="6" fill="#fb7185" fill-opacity=".5"/>
  <rect x="132" y="330" width="590" height="36" rx="10" fill="#3f121d"/>
  <rect x="152" y="342" width="86" height="12" rx="6" fill="#fecdd3"/>
  <rect x="268" y="342" width="324" height="12" rx="6" fill="#f43f5e" fill-opacity=".62"/>
  <rect x="132" y="394" width="590" height="36" rx="10" fill="#2a171d"/>
  <rect x="152" y="406" width="86" height="12" rx="6" fill="#fda4af"/>
  <rect x="268" y="406" width="252" height="12" rx="6" fill="#fb7185" fill-opacity=".42"/>
  <rect x="132" y="458" width="590" height="36" rx="10" fill="#3f121d"/>
  <rect x="152" y="470" width="86" height="12" rx="6" fill="#fecdd3"/>
  <rect x="268" y="470" width="360" height="12" rx="6" fill="#f43f5e" fill-opacity=".62"/>
  <rect x="856" y="266" width="206" height="18" rx="9" fill="#fecdd3"/>
  <rect x="856" y="318" width="280" height="90" rx="18" fill="#fb7185" fill-opacity=".18"/>
  <rect x="886" y="348" width="198" height="12" rx="6" fill="#fecdd3"/>
  <rect x="886" y="374" width="156" height="12" rx="6" fill="#fb7185" fill-opacity=".6"/>
  <rect x="856" y="448" width="280" height="162" rx="18" fill="#fb7185" fill-opacity=".12"/>
  <path d="M890 500L930 540L1014 474" stroke="#fb7185" stroke-width="14" stroke-linecap="round" stroke-linejoin="round"/>
</svg>
